<?xml version="1.0" standalone="no"?>
<!DOCTYPE svg PUBLIC "-//W3C//DTD SVG 20010904//EN"
 "http://www.w3.org/TR/2001/REC-SVG-20010904/DTD/svg10.dtd">
<svg version="1.0" xmlns="http://www.w3.org/2000/svg"
 width="800.000000pt" height="448.000000pt" viewBox="0 0 800.000000 448.000000"
 preserveAspectRatio="xMidYMid meet">

<g transform="translate(0.000000,448.000000) scale(0.100000,-0.100000)"
fill="#000000" stroke="none">
<path d="M3643 3111 c-25 -18 -49 -28 -61 -24 -14 3 -22 -1 -27 -16 -4 -13
-18 -23 -41 -27 -23 -4 -33 -11 -30 -19 3 -8 -1 -19 -9 -25 -8 -6 -17 -25 -20
-41 -4 -17 -14 -33 -23 -37 -10 -3 -25 -14 -36 -23 -10 -10 -36 -21 -57 -24
-33 -6 -44 -3 -70 19 -30 26 -82 35 -93 17 -9 -13 -55 11 -62 32 -3 9 -10 15
-15 11 -5 -3 -12 8 -15 24 -6 32 -55 62 -99 62 -13 0 -27 5 -30 10 -10 17 -44
11 -57 -10 -7 -11 -20 -20 -29 -20 -9 0 -22 -6 -28 -14 -14 -17 -51 -9 -51 10
0 8 -7 14 -15 14 -8 0 -15 -4 -15 -10 0 -5 -6 -10 -13 -10 -7 0 -25 -6 -40
-12 -21 -10 -26 -18 -22 -33 3 -11 7 -33 9 -50 2 -16 14 -47 26 -68 13 -21 26
-53 29 -70 5 -25 13 -33 41 -40 19 -4 42 -8 52 -8 14 0 21 -11 26 -42 4 -21
34 -67 41 -62 5 3 11 -2 15 -10 3 -9 0 -15 -9 -15 -8 0 -15 -7 -15 -16 0 -24
19 -54 35 -54 21 0 19 -17 -3 -24 -30 -10 -43 -41 -30 -77 10 -30 9 -34 -25
-64 -20 -18 -51 -38 -69 -45 -56 -22 -78 -49 -78 -93 l0 -40 58 6 c31 3 74 9
95 13 56 10 48 -12 -32 -88 -71 -67 -73 -70 -99 -188 -11 -48 -6 -100 10 -100
7 0 8 -32 3 -89 l-7 -88 46 -23 c25 -12 46 -25 46 -28 0 -15 -16 -30 -47 -46
-23 -11 -33 -24 -33 -40 0 -13 -9 -35 -20 -49 -30 -38 -25 -52 33 -80 29 -13
58 -32 66 -40 18 -23 10 -51 -17 -55 -25 -4 -26 -10 -22 -120 l2 -72 -29 0
c-16 0 -34 5 -40 11 -13 13 -33 4 -33 -15 0 -7 -7 -26 -15 -43 -12 -23 -13
-41 -5 -89 6 -32 10 -62 10 -66 0 -5 7 -8 15 -8 8 0 15 -4 15 -10 0 -5 12 -10
28 -10 32 0 46 -9 55 -33 3 -9 14 -17 24 -17 10 0 23 -12 30 -25 10 -23 7 -33
-23 -87 -40 -70 -34 -89 17 -60 24 13 61 21 121 24 53 3 93 10 103 18 23 19
88 13 143 -11 60 -28 107 -17 107 24 -1 23 7 30 65 54 36 15 76 35 89 45 13
10 34 18 47 18 21 0 61 34 98 85 9 13 15 15 20 7 11 -18 22 -14 34 13 6 14 18
25 26 25 17 0 28 24 20 45 -5 12 2 15 31 15 46 0 75 15 75 40 0 13 7 20 18 20
22 0 47 25 56 57 4 12 12 20 19 17 7 -2 17 6 22 18 6 13 20 27 31 33 37 18 55
38 50 52 -7 16 14 53 30 53 6 0 23 11 38 25 15 14 34 25 42 25 17 0 19 31 2
48 -7 7 -8 15 -1 24 5 7 10 32 11 56 1 40 0 42 -29 42 -16 0 -41 7 -55 16 -19
13 -30 14 -48 6 -28 -12 -36 -7 -36 24 0 13 -4 25 -9 29 -17 10 -41 67 -41 95
0 19 -7 30 -25 38 -14 6 -25 18 -25 27 0 8 -6 15 -14 15 -12 0 -12 8 3 50 10
28 21 53 24 57 12 12 7 43 -7 43 -7 0 -16 8 -19 18 -2 9 -8 25 -12 35 -5 12
-2 17 9 17 12 0 16 10 16 43 1 39 2 41 16 22 8 -11 38 -25 67 -32 74 -17 97
-16 98 5 0 10 3 12 6 5 9 -24 50 -13 93 26 36 33 42 43 38 69 -4 26 -1 32 16
34 12 2 27 15 34 31 7 15 17 27 23 27 12 0 12 47 -1 55 -6 3 -7 17 -4 31 4 17
2 24 -9 24 -21 0 -46 32 -29 37 17 6 15 38 -3 53 -14 12 -13 16 11 42 15 15
34 28 41 28 8 0 16 7 19 15 4 8 12 15 20 15 19 0 18 36 -1 44 -8 3 -15 12 -15
20 0 44 -50 106 -62 78 -1 -5 -15 -12 -30 -16 -21 -5 -28 -3 -28 8 0 21 -28
40 -42 30 -7 -5 -26 -9 -43 -8 -16 1 -32 -2 -35 -5 -7 -10 -67 -51 -74 -51 -3
0 -6 7 -6 15 0 8 -9 15 -20 15 -11 0 -20 4 -20 10 0 5 -15 10 -32 10 -55 -1
-93 5 -99 14 -18 24 -91 -25 -151 -102 -32 -40 -41 -28 -35 47 4 53 2 73 -10
91 -13 19 -14 30 -6 64 6 23 9 60 7 82 -3 35 0 43 16 47 11 3 22 17 26 33 4
16 12 36 20 44 7 8 16 27 19 43 4 15 11 27 15 27 7 0 23 60 18 66 -2 1 -14 5
-28 8 -18 4 -37 -3 -67 -23z m77 0 c0 -5 -6 -16 -13 -23 -8 -7 -17 -27 -21
-43 -4 -17 -16 -40 -27 -51 -11 -12 -19 -25 -18 -30 4 -22 -2 -33 -16 -28 -12
5 -15 -3 -17 -37 -1 -24 -1 -58 1 -76 1 -17 -3 -34 -9 -38 -13 -8 -13 -58 1
-72 6 -6 13 -48 14 -93 1 -45 7 -86 13 -92 12 -12 58 30 81 75 8 15 22 27 30
27 9 0 22 9 29 21 10 16 16 18 27 9 8 -6 23 -9 35 -5 12 4 27 1 35 -5 8 -6 24
-10 37 -9 13 2 34 -4 48 -14 34 -24 69 -21 124 8 58 31 92 32 99 5 4 -16 13
-20 39 -18 18 1 38 5 44 10 17 12 58 -90 43 -108 -6 -8 -17 -14 -25 -14 -7 0
-17 -6 -21 -13 -4 -8 -20 -22 -35 -32 -34 -21 -34 -25 -7 -54 16 -17 19 -25 9
-31 -18 -11 -8 -43 17 -56 17 -8 20 -13 11 -22 -9 -9 -7 -16 6 -30 16 -18 15
-21 -10 -61 -16 -23 -35 -41 -46 -41 -14 0 -16 -6 -11 -31 5 -25 2 -31 -16
-36 -14 -3 -20 -11 -17 -20 4 -8 -4 -17 -19 -23 -14 -5 -25 -15 -25 -22 0 -8
-5 -6 -11 5 -14 23 -35 22 -42 -3 -4 -17 -10 -20 -34 -14 -15 4 -32 11 -37 15
-6 5 -16 9 -23 9 -8 0 -23 9 -35 20 -11 10 -42 22 -67 26 -25 4 -52 11 -59 17
-9 7 -11 6 -6 -7 4 -10 18 -16 40 -16 33 0 34 -1 34 -40 0 -29 -4 -40 -15 -40
-17 0 -21 -35 -5 -45 6 -3 10 -15 10 -26 0 -11 7 -22 15 -25 8 -4 12 -11 8
-18 -13 -20 -40 -136 -31 -136 4 0 8 -7 8 -14 0 -8 12 -21 28 -28 21 -11 27
-20 28 -47 0 -18 7 -39 15 -45 16 -13 37 -52 41 -81 3 -16 12 -21 47 -23 24
-2 55 -10 68 -19 18 -12 27 -13 36 -4 20 20 28 12 12 -13 -9 -13 -12 -31 -9
-41 4 -9 2 -20 -6 -25 -9 -6 -9 -12 -1 -29 10 -17 9 -22 -4 -27 -8 -4 -22 0
-31 7 -13 11 -14 9 -9 -14 6 -22 3 -28 -18 -36 -19 -7 -28 -20 -33 -45 -4 -26
-15 -41 -40 -55 -19 -12 -38 -30 -43 -43 -5 -15 -10 -18 -15 -9 -5 8 -15 -2
-29 -29 -13 -28 -30 -46 -49 -52 -15 -5 -28 -15 -28 -21 0 -23 -34 -47 -67
-47 -26 0 -33 -4 -33 -20 0 -13 -10 -24 -25 -30 -15 -6 -25 -17 -25 -29 0 -14
-5 -19 -15 -15 -9 4 -32 -9 -59 -34 -24 -22 -54 -43 -67 -47 -13 -4 -37 -17
-52 -28 -16 -11 -39 -19 -52 -19 -13 -1 -26 -6 -28 -12 -3 -7 -24 -18 -46 -26
-36 -11 -42 -17 -39 -38 5 -39 -21 -48 -72 -25 -73 33 -133 36 -181 11 -32
-16 -51 -19 -91 -15 -36 5 -59 2 -80 -9 -16 -9 -32 -14 -34 -12 -2 2 8 21 21
41 14 20 25 42 25 49 0 28 -26 67 -47 73 -13 3 -23 12 -23 20 0 8 -6 15 -14
15 -7 0 -19 7 -26 15 -7 8 -27 17 -45 21 -27 5 -34 12 -39 36 -10 52 -7 96 9
112 8 8 15 18 15 23 0 4 22 6 50 5 l50 -4 0 95 0 95 31 6 c29 6 31 8 25 39 -7
36 -53 81 -103 99 -39 14 -39 17 -13 46 11 12 20 32 20 46 0 20 7 27 33 34 29
7 32 12 35 50 3 39 1 42 -36 61 -38 19 -60 55 -41 67 15 9 10 109 -7 144 -15
30 -15 36 -2 64 9 17 16 44 17 59 1 42 16 62 92 134 38 36 69 71 69 79 0 25
-34 33 -101 24 -86 -13 -86 -13 -92 10 -7 26 9 43 64 72 25 13 60 37 78 55 31
28 33 33 23 62 -12 35 -7 61 14 61 7 0 19 10 25 22 10 19 8 25 -15 44 -26 23
-34 44 -16 44 17 0 11 35 -10 53 -11 9 -20 28 -20 41 0 13 -7 26 -15 30 -8 3
-15 12 -15 19 0 15 -65 38 -85 30 -9 -3 -16 4 -20 21 -3 14 -7 36 -10 49 -2
12 -13 32 -24 44 -12 13 -18 29 -14 42 3 12 0 28 -7 35 -9 12 -4 18 29 35 30
14 41 16 41 6 0 -15 46 -29 63 -18 7 4 17 8 22 8 17 0 41 19 48 38 7 18 27 24
27 7 0 -5 18 -10 40 -10 22 0 40 -4 40 -10 0 -5 6 -10 14 -10 8 0 20 -16 27
-35 7 -19 18 -35 25 -35 6 0 23 -11 37 -24 35 -32 63 -41 71 -21 8 21 28 19
59 -5 39 -31 157 -20 171 15 3 8 12 12 19 9 10 -3 16 5 21 26 4 21 13 34 27
37 17 5 20 11 15 34 -5 26 -3 29 22 29 16 0 32 8 39 19 7 12 19 17 30 15 11
-3 34 7 57 25 38 31 66 40 66 22z"/>
<path d="M3546 2195 c-18 -18 -18 -22 -5 -50 8 -17 8 -16 4 7 -4 19 0 30 12
37 10 5 15 12 12 16 -4 3 -14 -1 -23 -10z"/>
<path d="M3647 2173 c-12 -11 -7 -23 9 -23 12 0 15 -7 12 -29 -2 -17 -1 -28 4
-25 4 3 8 16 8 30 0 28 17 31 63 9 l32 -16 -24 21 c-13 11 -34 20 -47 20 -12
0 -26 5 -29 10 -7 12 -19 13 -28 3z"/>
<path d="M3598 2163 c6 -2 18 -2 25 0 6 3 1 5 -13 5 -14 0 -19 -2 -12 -5z"/>
<path d="M3533 2095 c3 -57 -61 -117 -117 -109 -28 4 -33 1 -49 -32 -10 -20
-16 -39 -13 -41 2 -2 7 5 11 16 3 12 11 21 16 21 5 0 9 7 9 15 0 23 24 18 35
-7 6 -14 17 -22 28 -20 11 2 17 -4 17 -15 0 -15 2 -16 10 -3 17 27 12 41 -14
34 -13 -3 -27 -1 -30 4 -3 6 7 13 24 17 17 4 35 15 41 26 5 11 15 16 21 13 6
-4 28 -10 48 -14 31 -6 36 -4 37 12 2 15 -1 17 -12 8 -7 -6 -25 -8 -39 -4 -28
7 -32 14 -17 30 6 5 6 23 1 44 -9 33 -9 34 -7 5z"/>
<path d="M3644 2066 c-3 -8 -4 -25 -2 -38 3 -17 5 -13 9 15 5 38 2 47 -7 23z"/>
<path d="M3617 2030 c3 -11 7 -20 9 -20 2 0 4 9 4 20 0 11 -4 20 -9 20 -5 0
-7 -9 -4 -20z"/>
<path d="M3610 1965 c0 -3 6 -20 13 -38 8 -18 12 -38 10 -44 -3 -7 0 -13 6
-13 14 0 14 37 1 45 -5 3 -10 15 -10 25 0 10 -4 22 -10 25 -5 3 -10 4 -10 0z"/>
<path d="M3508 1903 c6 -2 18 -2 25 0 6 3 1 5 -13 5 -14 0 -19 -2 -12 -5z"/>
<path d="M3342 1860 c0 -19 2 -27 5 -17 2 9 2 25 0 35 -3 9 -5 1 -5 -18z"/>
<path d="M3671 1868 c-1 -9 11 -30 25 -45 l26 -28 -20 30 c-10 17 -22 37 -25
45 -4 12 -6 12 -6 -2z"/>
<path d="M3522 1844 c-12 -8 -22 -21 -22 -29 0 -7 -12 -28 -26 -47 -25 -31
-25 -31 4 2 17 19 41 46 52 59 26 28 22 36 -8 15z"/>
<path d="M3361 1825 c-1 -5 8 -21 19 -35 11 -14 20 -20 20 -14 0 7 -9 22 -20
35 -10 13 -19 20 -19 14z"/>
<path d="M3731 1783 c11 -3 15 -11 12 -24 -3 -10 0 -19 6 -19 5 0 8 7 5 15 -4
8 -1 15 5 15 6 0 11 5 11 10 0 6 -12 9 -27 9 -16 -1 -21 -3 -12 -6z"/>
<path d="M3349 1743 l-24 -28 28 24 c25 23 32 31 24 31 -2 0 -14 -12 -28 -27z"/>
<path d="M3426 1705 c-19 -29 -21 -41 -3 -23 13 13 30 48 23 48 -2 0 -11 -11
-20 -25z"/>
<path d="M3298 1713 c-20 -5 -24 -53 -7 -88 7 -15 8 -10 3 19 -5 34 -3 38 12
32 13 -5 14 -4 6 7 -9 10 -8 17 0 25 7 7 10 11 8 11 -3 -1 -13 -3 -22 -6z"/>
<path d="M3730 1692 c0 -5 7 -17 16 -28 15 -18 15 -18 5 3 -8 16 -8 23 2 26 7
3 5 6 -5 6 -10 1 -18 -3 -18 -7z"/>
<path d="M3730 1625 c0 -11 12 -15 44 -15 25 0 48 -4 51 -10 3 -5 16 -10 27
-10 18 0 18 15 0 15 -4 0 -14 4 -22 10 -8 5 -33 8 -55 7 -30 -2 -36 0 -25 7
13 9 13 11 -2 11 -10 0 -18 -7 -18 -15z"/>
<path d="M3307 1578 c3 -13 19 -37 34 -53 25 -26 29 -39 30 -90 1 -61 -11
-108 -30 -120 -13 -7 -15 -81 -3 -89 5 -3 6 9 4 26 -3 19 4 47 19 76 18 36 23
64 24 119 0 39 -3 69 -7 66 -10 -5 -57 47 -58 64 0 6 -4 14 -9 17 -5 4 -7 -4
-4 -16z"/>
<path d="M3860 1559 c0 -5 7 -9 15 -9 8 0 15 -4 15 -10 0 -5 4 -10 10 -10 5 0
7 6 4 14 -6 16 -44 29 -44 15z"/>
<path d="M3921 1508 c0 -10 10 -25 23 -34 14 -8 27 -23 29 -32 4 -13 5 -12 6
4 1 12 -9 26 -24 34 -13 7 -26 20 -28 29 -4 14 -5 13 -6 -1z"/>
<path d="M4000 1415 c7 -8 27 -14 44 -14 27 2 28 2 6 6 -14 3 -29 9 -34 14
-16 15 -29 10 -16 -6z"/>
<path d="M3369 1191 c20 -19 23 -28 20 -83 -4 -56 -2 -63 16 -66 16 -2 17 -1
5 7 -11 8 -14 25 -12 69 3 55 2 60 -25 76 l-28 17 24 -20z"/>
<path d="M3404 999 c-3 -6 -1 -15 6 -19 8 -5 9 -16 5 -30 -5 -15 -4 -20 4 -16
14 9 14 56 0 56 -5 0 -7 5 -4 10 3 6 4 10 1 10 -3 0 -8 -5 -12 -11z"/>
<path d="M3398 915 c-4 -4 -2 -17 4 -29 7 -11 11 -25 10 -29 -1 -5 2 -6 8 -2
7 4 8 11 2 18 -6 7 -11 20 -13 30 -2 11 -7 16 -11 12z"/>
<path d="M3417 815 c3 -8 9 -12 14 -9 12 7 11 11 -5 17 -10 4 -13 1 -9 -8z"/>
</g>
</svg>
